<svg width="73" height="64" viewBox="0 0 73 64" fill="none" xmlns="http://www.w3.org/2000/svg">
<g clip-path="url(#clip0_14_4284)">
<path d="M23.3875 29.4125C27.6 32 31.25 35.425 34.1125 39.475C34.9875 40.7125 35.7875 42.0125 36.5 43.35C37.2125 42 38.0125 40.7125 38.8875 39.475C41.75 35.425 45.4 32 49.6125 29.4125C55.2 25.975 61.7625 24 68.75 24H69.9875C71.375 24 72.5 25.125 72.5 26.5125C72.5 45.0125 57.5125 60 39.0125 60H36.5H33.9875C15.4875 60 0.5 45.0125 0.5 26.5125C0.5 25.125 1.625 24 3.0125 24H4.25C11.2375 24 17.8 25.975 23.3875 29.4125ZM38.1875 4.7C40.15 6.8125 45.825 13.675 48.7375 25.275C43.9875 27.975 39.8125 31.625 36.5 35.975C33.1875 31.625 29.0125 27.9875 24.2625 25.275C27.1625 13.675 32.8375 6.8125 34.8125 4.7C35.25 4.2375 35.8625 4 36.5 4C37.1375 4 37.75 4.2375 38.1875 4.7Z" fill="#D8AE5E"/>
</g>
<defs>
<clipPath id="clip0_14_4284">
<rect width="72" height="64" fill="white" transform="translate(0.5)"/>
</clipPath>
</defs>
</svg>
